<svg width="32" height="41" viewBox="0 0 32 41" fill="none" xmlns="http://www.w3.org/2000/svg">
<path id="Vector" d="M14.6 33.9918H17.6V23.9418L21.7 28.0418L23.8 25.9418L16 18.3418L8.3 26.0418L10.4 28.1418L14.6 23.9418V33.9918ZM3 40.0918C2.2 40.0918 1.5 39.7918 0.9 39.1918C0.3 38.5918 0 37.8918 0 37.0918V3.0918C0 2.2918 0.3 1.5918 0.9 0.991797C1.5 0.391797 2.2 0.0917969 3 0.0917969H21.05L32 11.0418V37.0918C32 37.8918 31.7 38.5918 31.1 39.1918C30.5 39.7918 29.8 40.0918 29 40.0918H3ZM19.55 12.3918V3.0918H3V37.0918H29V12.3918H19.55Z" fill="black"/>
</svg>
