<svg width="20" height="18" viewBox="0 0 20 18" fill="none" xmlns="http://www.w3.org/2000/svg">
<path d="M16.5999 1.79978C16.3635 1.79978 16.1295 1.84634 15.9111 1.9368C15.6927 2.02726 15.4943 2.15984 15.3271 2.32699C15.16 2.49413 15.0274 2.69257 14.9369 2.91095C14.8465 3.12934 14.7999 3.3634 14.7999 3.59978C14.7999 3.83616 14.8465 4.07023 14.9369 4.28861C15.0274 4.507 15.16 4.70543 15.3271 4.87257C15.4943 5.03972 15.6927 5.17231 15.9111 5.26277C16.1295 5.35322 16.3635 5.39978 16.5999 5.39978C17.0773 5.39978 17.5351 5.21014 17.8727 4.87257C18.2103 4.53501 18.3999 4.07717 18.3999 3.59978C18.3999 3.12239 18.2103 2.66455 17.8727 2.32699C17.5351 1.98942 17.0773 1.79978 16.5999 1.79978ZM13.5999 3.59978C13.6001 2.95697 13.8067 2.33121 14.1894 1.81471C14.572 1.2982 15.1105 0.918269 15.7254 0.730883C16.3403 0.543497 16.9991 0.558571 17.6048 0.773883C18.2104 0.989195 18.7309 1.39336 19.0896 1.92682C19.4482 2.46029 19.626 3.09484 19.5968 3.73699C19.5676 4.37913 19.3329 4.99491 18.9272 5.49359C18.5216 5.99227 17.9666 6.34748 17.3438 6.50688C16.7211 6.66629 16.0636 6.62145 15.4683 6.37898L13.9299 8.68658C14.2224 8.98212 14.4503 9.33524 14.5991 9.72354C14.7479 10.1118 14.8144 10.5268 14.7942 10.9422C14.7741 11.3575 14.6679 11.7641 14.4822 12.1362C14.2966 12.5083 14.0357 12.8378 13.7159 13.1036C13.3962 13.3695 13.0247 13.566 12.625 13.6807C12.2253 13.7954 11.8061 13.8257 11.3941 13.7697C10.982 13.7138 10.5861 13.5728 10.2314 13.3557C9.87679 13.1386 9.57114 12.8501 9.3339 12.5086L6.3387 13.7926C6.3787 13.9894 6.3991 14.1918 6.3999 14.3998C6.39982 15.117 6.14281 15.8104 5.67546 16.3544C5.2081 16.8984 4.56132 17.257 3.85233 17.3651C3.14334 17.4733 2.41907 17.3239 1.81076 16.944C1.20246 16.5641 0.750383 15.9788 0.536463 15.2943C0.322544 14.6097 0.360937 13.8712 0.644686 13.2125C0.928434 12.5539 1.43876 12.0186 2.08318 11.7038C2.7276 11.3891 3.46346 11.3156 4.15741 11.4967C4.85136 11.6777 5.45747 12.1015 5.8659 12.691L8.8611 11.407C8.75079 10.8744 8.78733 10.3219 8.96682 9.80848C9.1463 9.29507 9.46197 8.84012 9.88007 8.49228C10.2982 8.14444 10.803 7.91681 11.3404 7.83372C11.8779 7.75063 12.4279 7.81522 12.9315 8.02058L14.4699 5.71298C13.9125 5.15095 13.5997 4.39138 13.5999 3.59978ZM9.9999 10.7998C9.9999 11.2772 10.1895 11.735 10.5271 12.0726C10.8647 12.4101 11.3225 12.5998 11.7999 12.5998C12.2773 12.5998 12.7351 12.4101 13.0727 12.0726C13.4103 11.735 13.5999 11.2772 13.5999 10.7998C13.5999 10.3224 13.4103 9.86455 13.0727 9.52699C12.7351 9.18942 12.2773 8.99978 11.7999 8.99978C11.3225 8.99978 10.8647 9.18942 10.5271 9.52699C10.1895 9.86455 9.9999 10.3224 9.9999 10.7998ZM1.5999 14.3998C1.5999 14.8772 1.78955 15.335 2.12711 15.6726C2.46468 16.0101 2.92251 16.1998 3.3999 16.1998C3.87729 16.1998 4.33513 16.0101 4.6727 15.6726C5.01026 15.335 5.1999 14.8772 5.1999 14.3998C5.1999 13.9224 5.01026 13.4646 4.6727 13.127C4.33513 12.7894 3.87729 12.5998 3.3999 12.5998C2.92251 12.5998 2.46468 12.7894 2.12711 13.127C1.78955 13.4646 1.5999 13.9224 1.5999 14.3998Z" fill="black"/>
</svg>
